<mxfile host="app.diagrams.net" agent="Mozilla/5.0 (Windows NT 10.0; Win64; x64) AppleWebKit/537.36 (KHTML, like Gecko) Chrome/137.0.0.0 Safari/537.36" version="27.1.6">
  <diagram name="Page-1" id="wk6wAtFcDwRdvndeJLqF">
    <mxGraphModel dx="1234" dy="479" grid="1" gridSize="10" guides="1" tooltips="1" connect="1" arrows="1" fold="1" page="1" pageScale="1" pageWidth="827" pageHeight="1169" math="0" shadow="0">
      <root>
        <mxCell id="0" />
        <mxCell id="1" parent="0" />
        <mxCell id="lNW7MkjH-JcjPd9_zLlk-6" style="edgeStyle=orthogonalEdgeStyle;rounded=0;orthogonalLoop=1;jettySize=auto;html=1;exitX=0.5;exitY=1;exitDx=0;exitDy=0;" edge="1" parent="1" target="lNW7MkjH-JcjPd9_zLlk-2">
          <mxGeometry relative="1" as="geometry">
            <mxPoint x="395" y="140.0000000000001" as="sourcePoint" />
          </mxGeometry>
        </mxCell>
        <mxCell id="lNW7MkjH-JcjPd9_zLlk-1" value="&lt;font style=&quot;font-size: 14px;&quot;&gt;User wants to access www.foobar.com&lt;/font&gt;" style="rounded=1;whiteSpace=wrap;html=1;" vertex="1" parent="1">
          <mxGeometry x="260" y="70" width="260" height="70" as="geometry" />
        </mxCell>
        <mxCell id="lNW7MkjH-JcjPd9_zLlk-14" style="edgeStyle=orthogonalEdgeStyle;rounded=0;orthogonalLoop=1;jettySize=auto;html=1;exitX=0.5;exitY=1;exitDx=0;exitDy=0;" edge="1" parent="1" source="lNW7MkjH-JcjPd9_zLlk-2">
          <mxGeometry relative="1" as="geometry">
            <mxPoint x="394.5882352941177" y="330" as="targetPoint" />
          </mxGeometry>
        </mxCell>
        <mxCell id="lNW7MkjH-JcjPd9_zLlk-2" value="&lt;font style=&quot;font-size: 14px;&quot;&gt;DNS server&lt;/font&gt;&lt;div&gt;&lt;font size=&quot;3&quot;&gt;www.foobar.com(8.8.8.8)&lt;/font&gt;&lt;/div&gt;" style="rounded=1;whiteSpace=wrap;html=1;" vertex="1" parent="1">
          <mxGeometry x="270" y="230" width="250" height="60" as="geometry" />
        </mxCell>
        <mxCell id="lNW7MkjH-JcjPd9_zLlk-16" value="" style="rounded=1;whiteSpace=wrap;html=1;" vertex="1" parent="1">
          <mxGeometry x="260" y="330" width="280" height="240" as="geometry" />
        </mxCell>
        <mxCell id="lNW7MkjH-JcjPd9_zLlk-31" value="" style="swimlane;startSize=0;" vertex="1" parent="1">
          <mxGeometry x="120" y="600" width="210" height="365" as="geometry" />
        </mxCell>
        <mxCell id="lNW7MkjH-JcjPd9_zLlk-20" value="&lt;font style=&quot;font-size: 14px;&quot;&gt;Application Server&lt;/font&gt;" style="rounded=1;whiteSpace=wrap;html=1;" vertex="1" parent="lNW7MkjH-JcjPd9_zLlk-31">
          <mxGeometry x="42.5" y="137.5" width="120" height="60" as="geometry" />
        </mxCell>
        <mxCell id="lNW7MkjH-JcjPd9_zLlk-18" value="&lt;font style=&quot;font-size: 14px;&quot;&gt;&lt;br&gt;&lt;/font&gt;&lt;div&gt;&lt;font size=&quot;3&quot;&gt;Web server&lt;/font&gt;&lt;/div&gt;&lt;div&gt;&lt;font size=&quot;3&quot;&gt;(Nginx)&lt;/font&gt;&lt;/div&gt;" style="rounded=1;whiteSpace=wrap;html=1;" vertex="1" parent="lNW7MkjH-JcjPd9_zLlk-31">
          <mxGeometry x="40" y="75" width="125" height="55" as="geometry" />
        </mxCell>
        <mxCell id="lNW7MkjH-JcjPd9_zLlk-39" value="&lt;font style=&quot;font-size: 14px;&quot;&gt;Firewall 2&lt;/font&gt;" style="rounded=1;whiteSpace=wrap;html=1;" vertex="1" parent="lNW7MkjH-JcjPd9_zLlk-31">
          <mxGeometry x="45" y="5" width="120" height="45" as="geometry" />
        </mxCell>
        <mxCell id="lNW7MkjH-JcjPd9_zLlk-40" value="&lt;font style=&quot;font-size: 14px;&quot;&gt;MySql&lt;/font&gt;" style="rounded=1;whiteSpace=wrap;html=1;" vertex="1" parent="lNW7MkjH-JcjPd9_zLlk-31">
          <mxGeometry x="40" y="205" width="120" height="60" as="geometry" />
        </mxCell>
        <mxCell id="lNW7MkjH-JcjPd9_zLlk-42" value="&lt;font style=&quot;font-size: 14px;&quot;&gt;Monitor Client 1&lt;/font&gt;" style="rounded=1;whiteSpace=wrap;html=1;" vertex="1" parent="lNW7MkjH-JcjPd9_zLlk-31">
          <mxGeometry x="40" y="275" width="120" height="60" as="geometry" />
        </mxCell>
        <mxCell id="lNW7MkjH-JcjPd9_zLlk-48" style="edgeStyle=orthogonalEdgeStyle;rounded=0;orthogonalLoop=1;jettySize=auto;html=1;exitX=0.5;exitY=1;exitDx=0;exitDy=0;entryX=0.5;entryY=0;entryDx=0;entryDy=0;" edge="1" parent="1" source="lNW7MkjH-JcjPd9_zLlk-44" target="lNW7MkjH-JcjPd9_zLlk-46">
          <mxGeometry relative="1" as="geometry" />
        </mxCell>
        <mxCell id="lNW7MkjH-JcjPd9_zLlk-44" value="&lt;font style=&quot;font-size: 14px;&quot;&gt;Firewall 1&lt;/font&gt;&lt;div&gt;&lt;br&gt;&lt;/div&gt;" style="rounded=1;whiteSpace=wrap;html=1;" vertex="1" parent="1">
          <mxGeometry x="330" y="340" width="120" height="40" as="geometry" />
        </mxCell>
        <mxCell id="lNW7MkjH-JcjPd9_zLlk-46" value="&lt;font style=&quot;font-size: 14px;&quot;&gt;HAProxy + SSL&lt;/font&gt;&lt;div&gt;&lt;font size=&quot;3&quot;&gt;SSL Termination&lt;/font&gt;&lt;/div&gt;" style="rounded=1;whiteSpace=wrap;html=1;" vertex="1" parent="1">
          <mxGeometry x="330" y="430" width="120" height="60" as="geometry" />
        </mxCell>
        <mxCell id="lNW7MkjH-JcjPd9_zLlk-47" value="SSL Certificate&lt;div&gt;www.foobar.com&lt;/div&gt;" style="rounded=1;whiteSpace=wrap;html=1;" vertex="1" parent="1">
          <mxGeometry x="330" y="490" width="120" height="60" as="geometry" />
        </mxCell>
        <mxCell id="lNW7MkjH-JcjPd9_zLlk-52" value="" style="swimlane;startSize=0;" vertex="1" parent="1">
          <mxGeometry x="570" y="600" width="210" height="365" as="geometry" />
        </mxCell>
        <mxCell id="lNW7MkjH-JcjPd9_zLlk-53" value="&lt;font style=&quot;font-size: 14px;&quot;&gt;Application Server&lt;/font&gt;" style="rounded=1;whiteSpace=wrap;html=1;" vertex="1" parent="lNW7MkjH-JcjPd9_zLlk-52">
          <mxGeometry x="42.5" y="137.5" width="120" height="60" as="geometry" />
        </mxCell>
        <mxCell id="lNW7MkjH-JcjPd9_zLlk-54" value="&lt;font style=&quot;font-size: 14px;&quot;&gt;&lt;br&gt;&lt;/font&gt;&lt;div&gt;&lt;font size=&quot;3&quot;&gt;Web server&lt;/font&gt;&lt;/div&gt;&lt;div&gt;&lt;font size=&quot;3&quot;&gt;(Nginx)&lt;/font&gt;&lt;/div&gt;" style="rounded=1;whiteSpace=wrap;html=1;" vertex="1" parent="lNW7MkjH-JcjPd9_zLlk-52">
          <mxGeometry x="40" y="75" width="125" height="55" as="geometry" />
        </mxCell>
        <mxCell id="lNW7MkjH-JcjPd9_zLlk-55" value="&lt;font style=&quot;font-size: 14px;&quot;&gt;Firewall 4&lt;/font&gt;" style="rounded=1;whiteSpace=wrap;html=1;" vertex="1" parent="lNW7MkjH-JcjPd9_zLlk-52">
          <mxGeometry x="45" y="5" width="120" height="45" as="geometry" />
        </mxCell>
        <mxCell id="lNW7MkjH-JcjPd9_zLlk-56" value="&lt;font style=&quot;font-size: 14px;&quot;&gt;MySql&lt;/font&gt;" style="rounded=1;whiteSpace=wrap;html=1;" vertex="1" parent="lNW7MkjH-JcjPd9_zLlk-52">
          <mxGeometry x="40" y="205" width="120" height="60" as="geometry" />
        </mxCell>
        <mxCell id="lNW7MkjH-JcjPd9_zLlk-57" value="&lt;font style=&quot;font-size: 14px;&quot;&gt;Monitor Client 3&lt;/font&gt;" style="rounded=1;whiteSpace=wrap;html=1;" vertex="1" parent="lNW7MkjH-JcjPd9_zLlk-52">
          <mxGeometry x="40" y="275" width="120" height="60" as="geometry" />
        </mxCell>
        <mxCell id="lNW7MkjH-JcjPd9_zLlk-58" value="" style="swimlane;startSize=0;" vertex="1" parent="1">
          <mxGeometry x="340" y="600" width="210" height="365" as="geometry" />
        </mxCell>
        <mxCell id="lNW7MkjH-JcjPd9_zLlk-59" value="&lt;font style=&quot;font-size: 14px;&quot;&gt;Application Server&lt;/font&gt;" style="rounded=1;whiteSpace=wrap;html=1;" vertex="1" parent="lNW7MkjH-JcjPd9_zLlk-58">
          <mxGeometry x="42.5" y="137.5" width="120" height="60" as="geometry" />
        </mxCell>
        <mxCell id="lNW7MkjH-JcjPd9_zLlk-60" value="&lt;font style=&quot;font-size: 14px;&quot;&gt;&lt;br&gt;&lt;/font&gt;&lt;div&gt;&lt;font size=&quot;3&quot;&gt;Web server&lt;/font&gt;&lt;/div&gt;&lt;div&gt;&lt;font size=&quot;3&quot;&gt;(Nginx)&lt;/font&gt;&lt;/div&gt;" style="rounded=1;whiteSpace=wrap;html=1;" vertex="1" parent="lNW7MkjH-JcjPd9_zLlk-58">
          <mxGeometry x="40" y="75" width="125" height="55" as="geometry" />
        </mxCell>
        <mxCell id="lNW7MkjH-JcjPd9_zLlk-61" value="&lt;font style=&quot;font-size: 14px;&quot;&gt;Firewall 2&lt;/font&gt;" style="rounded=1;whiteSpace=wrap;html=1;" vertex="1" parent="lNW7MkjH-JcjPd9_zLlk-58">
          <mxGeometry x="45" y="5" width="120" height="45" as="geometry" />
        </mxCell>
        <mxCell id="lNW7MkjH-JcjPd9_zLlk-62" value="&lt;font style=&quot;font-size: 14px;&quot;&gt;MySql&lt;/font&gt;" style="rounded=1;whiteSpace=wrap;html=1;" vertex="1" parent="lNW7MkjH-JcjPd9_zLlk-58">
          <mxGeometry x="40" y="205" width="120" height="60" as="geometry" />
        </mxCell>
        <mxCell id="lNW7MkjH-JcjPd9_zLlk-63" value="&lt;font style=&quot;font-size: 14px;&quot;&gt;Monitor Client 2&lt;/font&gt;" style="rounded=1;whiteSpace=wrap;html=1;" vertex="1" parent="lNW7MkjH-JcjPd9_zLlk-58">
          <mxGeometry x="40" y="275" width="120" height="60" as="geometry" />
        </mxCell>
      </root>
    </mxGraphModel>
  </diagram>
</mxfile>
